<svg width="24" height="24" viewBox="0 0 24 24" fill="none" xmlns="http://www.w3.org/2000/svg">
<path d="M9.87982 8.6002L5.28982 13.1902C5.10356 13.3776 4.99902 13.631 4.99902 13.8952C4.99902 14.1594 5.10356 14.4128 5.28982 14.6002C5.38278 14.6939 5.49338 14.7683 5.61524 14.8191C5.7371 14.8699 5.8678 14.896 5.99982 14.896C6.13183 14.896 6.26253 14.8699 6.38439 14.8191C6.50625 14.7683 6.61685 14.6939 6.70982 14.6002L11.2898 10.0002C11.3828 9.90647 11.4934 9.83207 11.6152 9.78131C11.7371 9.73054 11.8678 9.7044 11.9998 9.7044C12.1318 9.7044 12.2625 9.73054 12.3844 9.78131C12.5063 9.83207 12.6169 9.90647 12.7098 10.0002L17.2898 14.6002C17.4768 14.7885 17.7309 14.8948 17.9963 14.8958C18.2616 14.8967 18.5165 14.7922 18.7048 14.6052C18.8931 14.4182 18.9994 14.1641 19.0004 13.8987C19.0013 13.6334 18.8968 13.3785 18.7098 13.1902L14.1198 8.6002C13.5573 8.0384 12.7948 7.72284 11.9998 7.72284C11.2048 7.72284 10.4423 8.0384 9.87982 8.6002V8.6002Z" fill="#ADADAD"/>
</svg>
