<svg width="24" height="24" viewBox="0 0 24 24" fill="none" xmlns="http://www.w3.org/2000/svg">
<path d="M14.1202 15.3998L18.7102 10.8098C18.8964 10.6224 19.001 10.369 19.001 10.1048C19.001 9.84062 18.8964 9.58716 18.7102 9.3998C18.6172 9.30607 18.5066 9.23168 18.3848 9.18091C18.2629 9.13014 18.1322 9.104 18.0002 9.104C17.8682 9.104 17.7375 9.13014 17.6156 9.18091C17.4937 9.23168 17.3831 9.30607 17.2902 9.3998L12.7102 13.9998C12.6172 14.0935 12.5066 14.1679 12.3848 14.2187C12.2629 14.2695 12.1322 14.2956 12.0002 14.2956C11.8682 14.2956 11.7375 14.2695 11.6156 14.2187C11.4937 14.1679 11.3831 14.0935 11.2902 13.9998L6.71018 9.3998C6.5232 9.2115 6.26908 9.10518 6.00372 9.10425C5.73835 9.10331 5.48349 9.20782 5.29518 9.3948C5.10688 9.58178 5.00056 9.8359 4.99963 10.1013C4.99869 10.3666 5.10321 10.6215 5.29018 10.8098L9.88018 15.3998C10.4427 15.9616 11.2052 16.2772 12.0002 16.2772C12.7952 16.2772 13.5577 15.9616 14.1202 15.3998V15.3998Z" fill="#ADADAD"/>
</svg>
