<svg width="35" height="35" viewBox="0 0 35 35" fill="none" xmlns="http://www.w3.org/2000/svg">
<path d="M24.269 16.6743C25.5449 16.097 26.5556 15.2304 27.3009 14.0757C28.0464 12.9205 28.4189 11.6515 28.4189 10.268C28.4189 8.99213 28.1168 7.8406 27.5123 6.81292C26.9078 5.78531 26.1526 4.96293 25.246 4.34505C24.3394 3.72718 23.3119 3.32101 22.1634 3.1263C21.9765 3.09468 21.7675 3.06636 21.5485 3.03963V1.21472C21.5485 0.543777 21.0046 0 20.3337 0H17.9043C17.2334 0 16.6896 0.543777 16.6896 1.21472V2.83434H14.1561V1.21472C14.1561 0.543777 13.6123 0 12.9414 0H10.512C9.84103 0 9.29725 0.543777 9.29725 1.21472V2.83434H5.13037V32.3681H9.29805V33.7853C9.29805 34.4562 9.84182 35 10.5128 35H12.9422C13.6131 35 14.1569 34.4562 14.1569 33.7853V32.3681H15.1833C15.7141 32.3645 16.2146 32.3596 16.6904 32.3544V33.7853C16.6904 34.4562 17.2342 35 17.9051 35H20.3346C21.0056 35 21.5493 34.4562 21.5493 33.7853V32.2296C21.8866 32.2106 22.1648 32.1896 22.3756 32.1669C23.9605 31.9923 25.2934 31.5256 26.3745 30.7668C27.4555 30.0079 28.3083 28.994 28.933 27.7247C29.5575 26.4553 29.8696 25.1495 29.8696 23.8064C29.8696 22.1006 29.3862 20.6165 28.4192 19.3541C27.4523 18.0916 26.0688 17.1983 24.269 16.6743ZM14.5185 7.7499C17.3258 7.7499 19.0247 7.7835 19.6155 7.85066C20.6095 7.97173 21.3582 8.31756 21.8619 8.88806C22.3656 9.45857 22.6174 10.2008 22.6174 11.1142C22.6174 12.0678 22.3251 12.8367 21.7408 13.4209C21.1566 14.0053 20.354 14.3579 19.3333 14.4786C18.7693 14.5458 17.3253 14.5794 15.002 14.5794H11.0939V7.7499H14.5185ZM22.8689 26.0325C22.3113 26.657 21.5898 27.0501 20.7031 27.2112C20.1254 27.3323 18.7624 27.3926 16.6135 27.3926H11.0935V19.4949H15.9081C18.621 19.4949 20.384 19.6358 21.1966 19.9181C22.0093 20.2003 22.6303 20.6502 23.06 21.268C23.4895 21.8859 23.7045 22.6378 23.7045 23.5245C23.705 24.5716 23.4265 25.4077 22.8689 26.0325Z" fill="#060606"/>
</svg>
