<svg width="35" height="36" viewBox="0 0 35 36" fill="none" xmlns="http://www.w3.org/2000/svg">
<g clip-path="url(#clip0_417_622)">
<path d="M27.7083 6.64779H26.1042C25.7657 5.00193 24.8702 3.52308 23.5685 2.4605C22.2668 1.39792 20.6386 0.816574 18.9583 0.814453L16.0417 0.814453C14.3614 0.816574 12.7332 1.39792 11.4315 2.4605C10.1298 3.52308 9.23431 5.00193 8.89583 6.64779H7.29167C5.35851 6.6501 3.50519 7.41907 2.13824 8.78602C0.771286 10.153 0.00231563 12.0063 0 13.9395L0 28.5228C0.00231563 30.4559 0.771286 32.3093 2.13824 33.6762C3.50519 35.0432 5.35851 35.8121 7.29167 35.8145H27.7083C29.6415 35.8121 31.4948 35.0432 32.8618 33.6762C34.2287 32.3093 34.9977 30.4559 35 28.5228V13.9395C34.9977 12.0063 34.2287 10.153 32.8618 8.78602C31.4948 7.41907 29.6415 6.6501 27.7083 6.64779ZM16.0417 3.73112H18.9583C19.86 3.73486 20.7384 4.01708 21.4735 4.53916C22.2086 5.06125 22.7645 5.79771 23.065 6.64779H11.935C12.2355 5.79771 12.7914 5.06125 13.5265 4.53916C14.2616 4.01708 15.14 3.73486 16.0417 3.73112ZM7.29167 9.56445H27.7083C28.8687 9.56445 29.9815 10.0254 30.8019 10.8459C31.6224 11.6663 32.0833 12.7791 32.0833 13.9395V18.3145H2.91667V13.9395C2.91667 12.7791 3.3776 11.6663 4.19807 10.8459C5.01855 10.0254 6.13134 9.56445 7.29167 9.56445ZM27.7083 32.8978H7.29167C6.13134 32.8978 5.01855 32.4369 4.19807 31.6164C3.3776 30.7959 2.91667 29.6831 2.91667 28.5228V21.2311H16.0417V22.6895C16.0417 23.0762 16.1953 23.4472 16.4688 23.7207C16.7423 23.9941 17.1132 24.1478 17.5 24.1478C17.8868 24.1478 18.2577 23.9941 18.5312 23.7207C18.8047 23.4472 18.9583 23.0762 18.9583 22.6895V21.2311H32.0833V28.5228C32.0833 29.6831 31.6224 30.7959 30.8019 31.6164C29.9815 32.4369 28.8687 32.8978 27.7083 32.8978Z" fill="#060606"/>
</g>
<defs>
<clipPath id="clip0_417_622">
<rect width="35" height="35" fill="white" transform="translate(0 0.814453)"/>
</clipPath>
</defs>
</svg>
