<svg width="35" height="35" viewBox="0 0 35 35" fill="none" xmlns="http://www.w3.org/2000/svg">
<g clip-path="url(#clip0_24_170)">
<path d="M32.8925 19.9236L30.1217 9.95446C29.3095 7.0339 27.5444 4.46863 25.1069 2.66639C22.6695 0.864159 19.6996 -0.0716041 16.6692 0.00784608C13.6389 0.0872962 10.7221 1.1774 8.38238 3.10488C6.04271 5.03236 4.41446 7.68661 3.75646 10.6457L1.61125 20.2926C1.37429 21.3585 1.37977 22.4641 1.62728 23.5276C1.87479 24.5912 2.35801 25.5856 3.04126 26.4373C3.72452 27.2891 4.59036 27.9766 5.57487 28.449C6.55938 28.9214 7.63741 29.1666 8.72937 29.1665H10.354C10.6887 30.8149 11.5829 32.2968 12.8852 33.3613C14.1876 34.4257 15.8178 35.0072 17.4998 35.0072C19.1818 35.0072 20.812 34.4257 22.1143 33.3613C23.4166 32.2968 24.3109 30.8149 24.6456 29.1665H25.8677C26.9918 29.1666 28.1007 28.9068 29.1078 28.4074C30.1148 27.908 30.9928 27.1825 31.6731 26.2876C32.3533 25.3927 32.8175 24.3526 33.0293 23.2487C33.2411 22.1447 33.1948 21.0067 32.894 19.9236H32.8925ZM17.4998 32.0832C16.5982 32.0795 15.7197 31.7973 14.9846 31.2752C14.2495 30.7531 13.6937 30.0166 13.3931 29.1665H21.6065C21.3059 30.0166 20.7501 30.7531 20.015 31.2752C19.2799 31.7973 18.4014 32.0795 17.4998 32.0832ZM29.3502 24.5218C28.9438 25.0608 28.4173 25.4977 27.8125 25.7977C27.2078 26.0977 26.5413 26.2525 25.8662 26.2499H8.72937C8.07427 26.2498 7.42755 26.1025 6.83695 25.8191C6.24636 25.5356 5.72696 25.1231 5.31711 24.612C4.90725 24.101 4.6174 23.5044 4.46894 22.8663C4.32049 22.2283 4.31722 21.565 4.45937 20.9255L6.60312 11.2772C7.11989 8.95288 8.39878 6.86805 10.2365 5.35407C12.0742 3.8401 14.3653 2.98387 16.7455 2.92152C19.1257 2.85916 21.4585 3.59425 23.3729 5.00993C25.2874 6.42561 26.6737 8.44063 27.3115 10.7347L30.0823 20.7038C30.2654 21.3533 30.2945 22.0366 30.1675 22.6993C30.0404 23.362 29.7606 23.986 29.3502 24.5218Z" fill="#060606"/>
</g>
<defs>
<clipPath id="clip0_24_170">
<rect width="35" height="35" fill="white"/>
</clipPath>
</defs>
</svg>
