<svg width="35" height="35" viewBox="0 0 35 35" fill="none" xmlns="http://www.w3.org/2000/svg">
<g clip-path="url(#clip0_417_614)">
<path d="M8.021 24.7919C9.22912 24.7919 10.2085 23.8125 10.2085 22.6044C10.2085 21.3962 9.22912 20.4169 8.021 20.4169C6.81287 20.4169 5.8335 21.3962 5.8335 22.6044C5.8335 23.8125 6.81287 24.7919 8.021 24.7919Z" fill="#060606"/>
<path d="M27.7083 4.375H7.29167C5.35851 4.37732 3.50519 5.14629 2.13824 6.51324C0.771286 7.88019 0.00231563 9.73351 0 11.6667L0 23.3333C0.00231563 25.2665 0.771286 27.1198 2.13824 28.4868C3.50519 29.8537 5.35851 30.6227 7.29167 30.625H27.7083C29.6415 30.6227 31.4948 29.8537 32.8618 28.4868C34.2287 27.1198 34.9977 25.2665 35 23.3333V11.6667C34.9977 9.73351 34.2287 7.88019 32.8618 6.51324C31.4948 5.14629 29.6415 4.37732 27.7083 4.375ZM7.29167 7.29167H27.7083C28.8687 7.29167 29.9815 7.7526 30.8019 8.57307C31.6224 9.39355 32.0833 10.5063 32.0833 11.6667H2.91667C2.91667 10.5063 3.3776 9.39355 4.19807 8.57307C5.01855 7.7526 6.13134 7.29167 7.29167 7.29167ZM27.7083 27.7083H7.29167C6.13134 27.7083 5.01855 27.2474 4.19807 26.4269C3.3776 25.6065 2.91667 24.4937 2.91667 23.3333V14.5833H32.0833V23.3333C32.0833 24.4937 31.6224 25.6065 30.8019 26.4269C29.9815 27.2474 28.8687 27.7083 27.7083 27.7083Z" fill="#060606"/>
</g>
<defs>
<clipPath id="clip0_417_614">
<rect width="35" height="35" fill="white"/>
</clipPath>
</defs>
</svg>
