<svg width="35" height="35" viewBox="0 0 35 35" fill="none" xmlns="http://www.w3.org/2000/svg">
<path d="M25.9468 10.5178C25.2987 7.7313 23.6494 5.28008 21.3124 3.63003C18.9754 1.97998 16.1135 1.24614 13.2709 1.56799C10.4282 1.88984 7.80288 3.24495 5.89392 5.37574C3.98497 7.50653 2.92546 10.2644 2.9168 13.1253C2.91554 14.9896 3.36588 16.8265 4.2293 18.4788C2.65594 19.3219 1.40946 20.6667 0.687909 22.2993C-0.0336463 23.932 -0.188891 25.759 0.24684 27.49C0.68257 29.2211 1.68428 30.7568 3.09283 31.8533C4.50137 32.9498 6.23594 33.5442 8.02097 33.5419H23.3335C26.1905 33.5287 28.9433 32.4675 31.07 30.5597C33.1967 28.6518 34.5493 26.03 34.8716 23.1912C35.1938 20.3523 34.4631 17.494 32.8181 15.1581C31.1731 12.8221 28.7282 11.171 25.9468 10.5178V10.5178ZM23.3335 30.6253H8.02097C6.77908 30.629 5.57867 30.1786 4.64568 29.359C3.71268 28.5393 3.11146 27.4069 2.95517 26.1749C2.79889 24.9429 3.09832 23.6963 3.7971 22.6696C4.49588 21.643 5.54582 20.9072 6.7493 20.6007C6.98075 20.5411 7.19402 20.4255 7.37032 20.2642C7.54663 20.1028 7.68058 19.9006 7.76038 19.6753C7.84018 19.45 7.86339 19.2086 7.82796 18.9722C7.79253 18.7359 7.69956 18.5118 7.55722 18.3198C6.43597 16.8203 5.83115 14.9976 5.83347 13.1253C5.8501 10.9173 6.70086 8.7973 8.21513 7.19036C9.7294 5.58342 11.7952 4.60837 13.9983 4.46076C16.2013 4.31315 18.3787 5.0039 20.0938 6.39447C21.809 7.78504 22.9349 9.77261 23.246 11.9586C23.2879 12.276 23.4332 12.5708 23.6593 12.7975C23.8855 13.0241 24.1799 13.1701 24.4972 13.2128C26.683 13.5237 28.6704 14.6495 30.061 16.3643C31.4516 18.0791 32.1425 20.2562 31.9953 22.459C31.8481 24.6619 30.8736 26.7277 29.2671 28.2422C27.6607 29.7567 25.5412 30.6079 23.3335 30.6253V30.6253Z" fill="#060606"/>
</svg>
