<svg width="35" height="35" viewBox="0 0 35 35" fill="none" xmlns="http://www.w3.org/2000/svg">
<g clip-path="url(#clip0_443_2697)">
<path d="M17.5 0C14.0388 0 10.6554 1.02636 7.77753 2.94928C4.89967 4.87221 2.65665 7.60533 1.33212 10.803C0.00758251 14.0007 -0.338976 17.5194 0.336265 20.9141C1.01151 24.3087 2.67822 27.427 5.12564 29.8744C7.57306 32.3218 10.6913 33.9885 14.0859 34.6637C17.4806 35.339 20.9993 34.9924 24.197 33.6679C27.3947 32.3434 30.1278 30.1003 32.0507 27.2225C33.9736 24.3446 35 20.9612 35 17.5C34.995 12.8603 33.1496 8.41197 29.8688 5.13117C26.588 1.85037 22.1398 0.00501824 17.5 0V0ZM17.5 32.0833C14.6157 32.0833 11.7962 31.228 9.39794 29.6256C6.99972 28.0232 5.13054 25.7456 4.02676 23.0808C2.92299 20.416 2.63419 17.4838 3.19689 14.6549C3.75959 11.826 5.14852 9.22754 7.18803 7.18803C9.22755 5.14851 11.8261 3.75958 14.6549 3.19688C17.4838 2.63418 20.4161 2.92298 23.0808 4.02676C25.7456 5.13054 28.0232 6.99972 29.6256 9.39793C31.228 11.7962 32.0833 14.6157 32.0833 17.5C32.0791 21.3664 30.5413 25.0733 27.8073 27.8073C25.0733 30.5413 21.3664 32.0791 17.5 32.0833Z" fill="white"/>
<path d="M17.4996 8.75C17.1128 8.75 16.7419 8.90365 16.4684 9.17714C16.1949 9.45063 16.0412 9.82156 16.0412 10.2083V16.5156L11.1252 19.5956C10.7964 19.801 10.5627 20.1285 10.4755 20.5062C10.3882 20.8839 10.4546 21.2808 10.66 21.6096C10.8654 21.9383 11.1929 22.172 11.5706 22.2593C11.9483 22.3465 12.3452 22.2801 12.674 22.0748L18.274 18.5748C18.4855 18.4422 18.6595 18.2575 18.7793 18.0385C18.8991 17.8194 18.9606 17.5732 18.9579 17.3235V10.2083C18.9579 9.82156 18.8043 9.45063 18.5308 9.17714C18.2573 8.90365 17.8863 8.75 17.4996 8.75Z" fill="white"/>
</g>
<defs>
<clipPath id="clip0_443_2697">
<rect width="35" height="35" fill="white"/>
</clipPath>
</defs>
</svg>
