<svg width="14" height="14" viewBox="0 0 14 14" fill="none" xmlns="http://www.w3.org/2000/svg">
<path d="M12.9998 0.999978C12.8123 0.812507 12.558 0.707191 12.2928 0.707191C12.0277 0.707191 11.7733 0.812507 11.5858 0.999978L6.99982 5.58598L2.41382 0.999978C2.22629 0.812507 1.97198 0.707191 1.70682 0.707191C1.44165 0.707191 1.18735 0.812507 0.999818 0.999978C0.812347 1.18751 0.707031 1.44181 0.707031 1.70698C0.707031 1.97214 0.812347 2.22645 0.999818 2.41398L5.58582 6.99998L0.999818 11.586C0.812347 11.7735 0.707031 12.0278 0.707031 12.293C0.707031 12.5581 0.812347 12.8125 0.999818 13C1.18735 13.1875 1.44165 13.2928 1.70682 13.2928C1.97198 13.2928 2.22629 13.1875 2.41382 13L6.99982 8.41398L11.5858 13C11.7733 13.1875 12.0277 13.2928 12.2928 13.2928C12.558 13.2928 12.8123 13.1875 12.9998 13C13.1873 12.8125 13.2926 12.5581 13.2926 12.293C13.2926 12.0278 13.1873 11.7735 12.9998 11.586L8.41382 6.99998L12.9998 2.41398C13.1873 2.22645 13.2926 1.97214 13.2926 1.70698C13.2926 1.44181 13.1873 1.18751 12.9998 0.999978Z" fill="#060606"/>
</svg>
