<svg width="35" height="35" viewBox="0 0 35 35" fill="none" xmlns="http://www.w3.org/2000/svg">
<g clip-path="url(#clip0_417_598)">
<path d="M28.4885 4.55295L26.0735 2.13503C25.3979 1.4559 24.5942 0.917523 23.709 0.551052C22.8239 0.18458 21.8749 -0.00270666 20.9169 2.95538e-05H11.6667C9.73351 0.00234518 7.88019 0.771316 6.51324 2.13827C5.14629 3.50522 4.37732 5.35854 4.375 7.2917V27.7084C4.37732 29.6415 5.14629 31.4948 6.51324 32.8618C7.88019 34.2287 9.73351 34.9977 11.6667 35H23.3333C25.2665 34.9977 27.1198 34.2287 28.4868 32.8618C29.8537 31.4948 30.6227 29.6415 30.625 27.7084V9.70815C30.6274 8.7503 30.4397 7.80148 30.073 6.9166C29.7063 6.03172 29.1678 5.22834 28.4885 4.55295ZM26.4265 6.61503C26.6333 6.82112 26.8185 7.04786 26.9792 7.2917H23.3333V3.64586C23.5768 3.8082 23.8039 3.9938 24.0115 4.20003L26.4265 6.61503ZM27.7083 27.7084C27.7083 28.8687 27.2474 29.9815 26.4269 30.802C25.6065 31.6224 24.4937 32.0834 23.3333 32.0834H11.6667C10.5063 32.0834 9.39355 31.6224 8.57307 30.802C7.7526 29.9815 7.29167 28.8687 7.29167 27.7084V7.2917C7.29167 6.13137 7.7526 5.01858 8.57307 4.1981C9.39355 3.37763 10.5063 2.9167 11.6667 2.9167H20.4167V7.2917C20.4167 8.06524 20.724 8.80711 21.2709 9.35409C21.8179 9.90107 22.5598 10.2084 23.3333 10.2084H27.7083V27.7084ZM23.3333 13.125C23.7201 13.125 24.091 13.2787 24.3645 13.5522C24.638 13.8257 24.7917 14.1966 24.7917 14.5834C24.7917 14.9701 24.638 15.3411 24.3645 15.6146C24.091 15.8881 23.7201 16.0417 23.3333 16.0417H11.6667C11.2799 16.0417 10.909 15.8881 10.6355 15.6146C10.362 15.3411 10.2083 14.9701 10.2083 14.5834C10.2083 14.1966 10.362 13.8257 10.6355 13.5522C10.909 13.2787 11.2799 13.125 11.6667 13.125H23.3333ZM24.7917 20.4167C24.7917 20.8035 24.638 21.1744 24.3645 21.4479C24.091 21.7214 23.7201 21.875 23.3333 21.875H11.6667C11.2799 21.875 10.909 21.7214 10.6355 21.4479C10.362 21.1744 10.2083 20.8035 10.2083 20.4167C10.2083 20.0299 10.362 19.659 10.6355 19.3855C10.909 19.112 11.2799 18.9584 11.6667 18.9584H23.3333C23.7201 18.9584 24.091 19.112 24.3645 19.3855C24.638 19.659 24.7917 20.0299 24.7917 20.4167ZM24.5117 25.394C24.7384 25.7059 24.8323 26.0948 24.773 26.4758C24.7137 26.8567 24.506 27.1987 24.1952 27.4269C22.7176 28.4798 20.9676 29.0839 19.1552 29.1667C18.0963 29.1616 17.0695 28.8022 16.2385 28.1459C15.7602 27.8177 15.5779 27.7084 15.2177 27.7084C14.2427 27.8592 13.3228 28.2579 12.546 28.8663C12.238 29.0859 11.8566 29.1772 11.4825 29.1209C11.1083 29.0646 10.7707 28.8651 10.541 28.5645C10.3112 28.2639 10.2072 27.8858 10.251 27.51C10.2948 27.1342 10.4829 26.7901 10.7756 26.5504C12.0607 25.5529 13.6037 24.9427 15.2235 24.7917C16.195 24.8072 17.1341 25.143 17.8952 25.7469C18.2421 26.0589 18.6888 26.2373 19.1552 26.25C20.3477 26.1607 21.4943 25.7533 22.4758 25.0702C22.7888 24.8434 23.179 24.7501 23.5608 24.8108C23.9425 24.8715 24.2845 25.0812 24.5117 25.394Z" fill="#060606"/>
</g>
<defs>
<clipPath id="clip0_417_598">
<rect width="35" height="35" fill="white"/>
</clipPath>
</defs>
</svg>
