<svg width="31" height="35" viewBox="0 0 31 35" fill="none" xmlns="http://www.w3.org/2000/svg">
<path fill-rule="evenodd" clip-rule="evenodd" d="M15.7672 0.137966C15.4383 -0.047933 15.0351 -0.0459681 14.7077 0.143861L10.7719 2.42578C10.2623 2.72122 10.0887 3.37381 10.3842 3.88338C10.6796 4.39295 11.3322 4.56653 11.8417 4.27109L14.1226 2.94868V5.86501C14.1226 6.51294 14.6478 7.03818 15.2958 7.03818C15.9437 7.03818 16.4689 6.51294 16.4689 5.86501V3.01033L18.6435 4.27109C19.153 4.56653 19.8056 4.39295 20.1011 3.88338C20.3965 3.37381 20.2229 2.72122 19.7133 2.42578L15.9919 0.268134C15.9225 0.216876 15.8472 0.173092 15.7672 0.137966ZM5.54447 7.92216C6.05404 7.62672 6.22763 6.97413 5.93219 6.46457C5.63675 5.955 4.98416 5.78141 4.47459 6.07685L0.538793 8.35878C0.227386 8.53932 0.0292808 8.8639 0.00895171 9.22058C-0.0024656 9.31226 -0.00287185 9.40437 0.00722007 9.49501V13.8453C0.00722007 14.4343 0.484715 14.9118 1.07373 14.9118C1.66276 14.9118 2.14025 14.4343 2.14025 13.8453V11.279L4.61594 12.7083C5.17706 13.0323 5.89455 12.8401 6.21851 12.2789C6.54247 11.7178 6.35022 11.0003 5.7891 10.6764L3.28635 9.23139L5.54447 7.92216ZM26.0106 6.07685C25.5011 5.78141 24.8485 5.955 24.553 6.46457C24.2576 6.97413 24.4312 7.62672 24.9407 7.92216L27.2519 9.26215L24.8024 10.6764C24.2413 11.0003 24.0491 11.7178 24.373 12.2789C24.697 12.84 25.4145 13.0323 25.9756 12.7083L28.345 11.3404V13.8453C28.345 14.4343 28.8225 14.9118 29.4115 14.9118C30.0005 14.9118 30.478 14.4343 30.478 13.8453V9.86947C30.6374 9.533 30.6344 9.12639 30.4342 8.77953C30.2749 8.5036 30.0204 8.31686 29.7361 8.23685L26.0106 6.07685ZM2.14025 21.1474C2.14025 20.5584 1.66276 20.0809 1.07373 20.0809C0.484715 20.0809 0.00722007 20.5584 0.00722007 21.1474V25.5444C-0.0195006 25.7843 0.0273761 26.0347 0.15737 26.2598C0.306322 26.5178 0.538466 26.6978 0.800353 26.7856L4.47459 28.9158C4.98416 29.2113 5.63675 29.0377 5.93219 28.5281C6.22763 28.0186 6.05404 27.366 5.54447 27.0705L3.3267 25.7847L5.7891 24.363C6.35022 24.0391 6.54247 23.3216 6.21851 22.7604C5.89455 22.1993 5.17705 22.0071 4.61594 22.331L2.14025 23.7604V21.1474ZM30.478 21.1474C30.478 20.5584 30.0005 20.0809 29.4115 20.0809C28.8225 20.0809 28.345 20.5584 28.345 21.1474V23.699L25.9756 22.331C25.4145 22.0071 24.697 22.1993 24.373 22.7604C24.0491 23.3216 24.2413 24.0391 24.8024 24.363L27.2116 25.7539L24.9407 27.0705C24.4312 27.366 24.2576 28.0186 24.553 28.5281C24.8485 29.0377 25.5011 29.2113 26.0106 28.9158L29.6059 26.8313C29.9416 26.7767 30.2509 26.5773 30.4342 26.2598C30.6344 25.913 30.6374 25.5064 30.478 25.1699V21.1474ZM11.8417 30.7216C11.3322 30.4262 10.6796 30.5997 10.3842 31.1093C10.0887 31.6189 10.2623 32.2715 10.7719 32.5669L14.7077 34.8488C14.8247 34.9167 14.9514 34.9605 15.081 34.9804C15.1506 34.9933 15.2224 35 15.2958 35C15.6304 35 15.9322 34.8599 16.146 34.6352L19.7133 32.5669C20.2229 32.2715 20.3965 31.6189 20.1011 31.1093C19.8056 30.5997 19.153 30.4262 18.6435 30.7216L16.4689 31.9824V29.1744C16.4689 28.5264 15.9437 28.0012 15.2958 28.0012C14.6478 28.0012 14.1226 28.5264 14.1226 29.1744V32.044L11.8417 30.7216Z" fill="#060606"/>
<path fill-rule="evenodd" clip-rule="evenodd" d="M20.4038 14.6844C20.7239 15.2477 20.5267 15.9639 19.9633 16.284L16.4214 18.2964V22.5011C16.4214 23.149 15.8961 23.6743 15.2482 23.6743C14.6003 23.6743 14.0751 23.149 14.0751 22.5011V18.2926L10.5751 16.2811C10.0134 15.9582 9.81969 15.2411 10.1425 14.6794C10.4654 14.1176 11.1825 13.9239 11.7443 14.2468L15.2516 16.2625L18.8042 14.2439C19.3675 13.9238 20.0837 14.1211 20.4038 14.6844Z" fill="#060606"/>
</svg>
