<svg width="35" height="35" viewBox="0 0 35 35" fill="none" xmlns="http://www.w3.org/2000/svg">
<g clip-path="url(#clip0_24_165)">
<path d="M33.7184 13.2255L22.6569 2.16254C21.2879 0.797528 19.4335 0.0310059 17.5003 0.0310059C15.567 0.0310059 13.7126 0.797528 12.3436 2.16254L1.28214 13.2255C0.874424 13.6306 0.551176 14.1126 0.331132 14.6435C0.111088 15.1745 -0.00137519 15.7438 0.000261757 16.3186V30.635C0.000261757 31.7954 0.461198 32.9082 1.28167 33.7286C2.10214 34.5491 3.21494 35.01 4.37526 35.01H30.6253C31.7856 35.01 32.8984 34.5491 33.7189 33.7286C34.5393 32.9082 35.0003 31.7954 35.0003 30.635V16.3186C35.0019 15.7438 34.8894 15.1745 34.6694 14.6435C34.4494 14.1126 34.1261 13.6306 33.7184 13.2255ZM21.8753 32.0934H13.1253V26.3563C13.1253 25.196 13.5862 24.0832 14.4067 23.2627C15.2271 22.4422 16.3399 21.9813 17.5003 21.9813C18.6606 21.9813 19.7734 22.4422 20.5939 23.2627C21.4143 24.0832 21.8753 25.196 21.8753 26.3563V32.0934ZM32.0836 30.635C32.0836 31.0218 31.93 31.3928 31.6565 31.6662C31.383 31.9397 31.012 32.0934 30.6253 32.0934H24.7919V26.3563C24.7919 24.4224 24.0237 22.5678 22.6563 21.2003C21.2888 19.8329 19.4341 19.0646 17.5003 19.0646C15.5664 19.0646 13.7117 19.8329 12.3443 21.2003C10.9768 22.5678 10.2086 24.4224 10.2086 26.3563V32.0934H4.37526C3.98849 32.0934 3.61756 31.9397 3.34406 31.6662C3.07057 31.3928 2.91693 31.0218 2.91693 30.635V16.3186C2.91828 15.9321 3.07179 15.5617 3.34422 15.2875L14.4057 4.229C15.2277 3.41077 16.3404 2.95142 17.5003 2.95142C18.6601 2.95142 19.7728 3.41077 20.5948 4.229L31.6563 15.2919C31.9277 15.565 32.0811 15.9336 32.0836 16.3186V30.635Z" fill="#060606"/>
</g>
<defs>
<clipPath id="clip0_24_165">
<rect width="35" height="35" fill="white"/>
</clipPath>
</defs>
</svg>
