<svg width="35" height="35" viewBox="0 0 35 35" fill="none" xmlns="http://www.w3.org/2000/svg">
<g clip-path="url(#clip0_20_200)">
<path d="M17.5 0C14.0388 0 10.6554 1.02636 7.77753 2.94928C4.89967 4.87221 2.65665 7.60533 1.33212 10.803C0.00758251 14.0007 -0.338976 17.5194 0.336265 20.9141C1.01151 24.3087 2.67822 27.427 5.12564 29.8744C7.57306 32.3218 10.6913 33.9885 14.0859 34.6637C17.4806 35.339 20.9993 34.9924 24.197 33.6679C27.3947 32.3434 30.1278 30.1003 32.0507 27.2225C33.9736 24.3446 35 20.9612 35 17.5C34.995 12.8603 33.1496 8.41197 29.8688 5.13117C26.588 1.85037 22.1398 0.00501824 17.5 0V0ZM17.5 32.0833C14.6157 32.0833 11.7962 31.228 9.39794 29.6256C6.99972 28.0232 5.13054 25.7456 4.02676 23.0808C2.92299 20.416 2.63419 17.4838 3.19689 14.6549C3.75959 11.826 5.14852 9.22754 7.18803 7.18803C9.22755 5.14851 11.8261 3.75958 14.6549 3.19688C17.4838 2.63418 20.4161 2.92298 23.0808 4.02676C25.7456 5.13054 28.0232 6.99972 29.6256 9.39793C31.228 11.7962 32.0833 14.6157 32.0833 17.5C32.0791 21.3664 30.5413 25.0733 27.8073 27.8073C25.0733 30.5413 21.3664 32.0791 17.5 32.0833Z" fill="#060606"/>
<path d="M17.4997 14.5837H16.0413C15.6546 14.5837 15.2836 14.7374 15.0101 15.0109C14.7367 15.2844 14.583 15.6553 14.583 16.0421C14.583 16.4288 14.7367 16.7998 15.0101 17.0733C15.2836 17.3468 15.6546 17.5004 16.0413 17.5004H17.4997V26.2504C17.4997 26.6372 17.6533 27.0081 17.9268 27.2816C18.2003 27.5551 18.5712 27.7087 18.958 27.7087C19.3448 27.7087 19.7157 27.5551 19.9892 27.2816C20.2627 27.0081 20.4163 26.6372 20.4163 26.2504V17.5004C20.4163 16.7269 20.109 15.985 19.5621 15.438C19.0151 14.891 18.2732 14.5837 17.4997 14.5837Z" fill="#060606"/>
<path d="M17.5 11.6663C18.7081 11.6663 19.6875 10.6869 19.6875 9.47876C19.6875 8.27064 18.7081 7.29126 17.5 7.29126C16.2919 7.29126 15.3125 8.27064 15.3125 9.47876C15.3125 10.6869 16.2919 11.6663 17.5 11.6663Z" fill="#060606"/>
</g>
<defs>
<clipPath id="clip0_20_200">
<rect width="35" height="35" fill="white"/>
</clipPath>
</defs>
</svg>
