<svg width="35" height="35" viewBox="0 0 35 35" fill="none" xmlns="http://www.w3.org/2000/svg">
<path d="M20.7375 21.875C26.5562 21.875 30.625 17.8105 30.625 11.9677C30.625 6.125 26.5562 2.1875 20.7375 2.1875H9.57031C9.11729 2.1875 8.75 2.55479 8.75 3.00781V17.133H5.19531C4.74229 17.133 4.375 17.5003 4.375 17.9534V21.0547C4.375 21.5077 4.74229 21.875 5.19531 21.875H8.75V24.0625H5.19531C4.74229 24.0625 4.375 24.4298 4.375 24.8828V27.6172C4.375 28.0702 4.74229 28.4375 5.19531 28.4375H8.75V31.9922C8.75 32.4452 9.11729 32.8125 9.57031 32.8125H13.5734C14.0265 32.8125 14.3938 32.4452 14.3938 31.9922V28.4375H25.4297C25.8827 28.4375 26.25 28.0702 26.25 27.6172V24.8828C26.25 24.4298 25.8827 24.0625 25.4297 24.0625H14.3938V21.875H20.7375ZM14.3938 6.88707H19.775C22.9688 6.88707 24.8938 8.87701 24.8938 11.9677C24.8938 15.1008 22.9688 17.133 19.6875 17.133H14.3938V6.88707Z" fill="#060606"/>
</svg>
