<svg width="35" height="36" viewBox="0 0 35 36" fill="none" xmlns="http://www.w3.org/2000/svg">
<g clip-path="url(#clip0_417_606)">
<path d="M27.0976 4.06003L17.9612 1.01357C17.662 0.913934 17.3386 0.913934 17.0395 1.01357L7.90304 4.06003C6.4504 4.54256 5.18677 5.47061 4.29168 6.71231C3.3966 7.95402 2.91559 9.44622 2.917 10.9769V18.4392C2.917 29.4686 16.3337 35.56 16.9082 35.8138C17.0946 35.8966 17.2964 35.9394 17.5003 35.9394C17.7043 35.9394 17.906 35.8966 18.0924 35.8138C18.667 35.56 32.0837 29.4686 32.0837 18.4392V10.9769C32.0851 9.44622 31.6041 7.95402 30.709 6.71231C29.8139 5.47061 28.5503 4.54256 27.0976 4.06003ZM29.167 18.4392C29.167 26.3944 19.9518 31.6123 17.5003 32.8607C15.046 31.6167 5.83366 26.4148 5.83366 18.4392V10.9769C5.83375 10.0586 6.12281 9.16352 6.6599 8.41861C7.19699 7.6737 7.95487 7.11668 8.82616 6.82649L17.5003 3.93461L26.1745 6.82649C27.0458 7.11668 27.8037 7.6737 28.3408 8.41861C28.8778 9.16352 29.1669 10.0586 29.167 10.9769V18.4392Z" fill="#060606"/>
<path d="M21.8753 15.5206H18.9586V12.604C18.9586 12.2172 18.805 11.8463 18.5315 11.5728C18.258 11.2993 17.8871 11.1456 17.5003 11.1456C17.1135 11.1456 16.7426 11.2993 16.4691 11.5728C16.1956 11.8463 16.042 12.2172 16.042 12.604V15.5206H13.1253C12.7385 15.5206 12.3676 15.6743 12.0941 15.9478C11.8206 16.2212 11.667 16.5922 11.667 16.979C11.667 17.3657 11.8206 17.7367 12.0941 18.0101C12.3676 18.2836 12.7385 18.4373 13.1253 18.4373H16.042V21.3539C16.042 21.7407 16.1956 22.1117 16.4691 22.3851C16.7426 22.6586 17.1135 22.8123 17.5003 22.8123C17.8871 22.8123 18.258 22.6586 18.5315 22.3851C18.805 22.1117 18.9586 21.7407 18.9586 21.3539V18.4373H21.8753C22.2621 18.4373 22.633 18.2836 22.9065 18.0101C23.18 17.7367 23.3336 17.3657 23.3336 16.979C23.3336 16.5922 23.18 16.2212 22.9065 15.9478C22.633 15.6743 22.2621 15.5206 21.8753 15.5206Z" fill="#060606"/>
</g>
<defs>
<clipPath id="clip0_417_606">
<rect width="35" height="35" fill="white" transform="translate(0 0.938232)"/>
</clipPath>
</defs>
</svg>
