<svg width="35" height="35" viewBox="0 0 35 35" fill="none" xmlns="http://www.w3.org/2000/svg">
<g clip-path="url(#clip0_20_208)">
<path d="M30.6248 5.83333H26.104C25.7655 4.18748 24.87 2.70863 23.5683 1.64605C22.2667 0.583465 20.6385 0.00212118 18.9582 0L16.0415 0C14.3612 0.00212118 12.733 0.583465 11.4313 1.64605C10.1297 2.70863 9.23414 4.18748 8.89567 5.83333H4.37484C3.98806 5.83333 3.61713 5.98698 3.34364 6.26047C3.07015 6.53396 2.9165 6.90489 2.9165 7.29167C2.9165 7.67844 3.07015 8.04937 3.34364 8.32286C3.61713 8.59635 3.98806 8.75 4.37484 8.75H5.83317V27.7083C5.83549 29.6415 6.60446 31.4948 7.97141 32.8618C9.33836 34.2287 11.1917 34.9977 13.1248 35H21.8748C23.808 34.9977 25.6613 34.2287 27.0283 32.8618C28.3952 31.4948 29.1642 29.6415 29.1665 27.7083V8.75H30.6248C31.0116 8.75 31.3825 8.59635 31.656 8.32286C31.9295 8.04937 32.0832 7.67844 32.0832 7.29167C32.0832 6.90489 31.9295 6.53396 31.656 6.26047C31.3825 5.98698 31.0116 5.83333 30.6248 5.83333ZM16.0415 2.91667H18.9582C19.8627 2.91777 20.7448 3.19867 21.4834 3.72085C22.2221 4.24304 22.7811 4.98093 23.0838 5.83333H11.9159C12.2186 4.98093 12.7776 4.24304 13.5162 3.72085C14.2549 3.19867 15.1369 2.91777 16.0415 2.91667ZM26.2498 27.7083C26.2498 28.8687 25.7889 29.9815 24.9684 30.8019C24.148 31.6224 23.0352 32.0833 21.8748 32.0833H13.1248C11.9645 32.0833 10.8517 31.6224 10.0312 30.8019C9.21077 29.9815 8.74984 28.8687 8.74984 27.7083V8.75H26.2498V27.7083Z" fill="#060606"/>
<path d="M14.5833 26.249C14.9701 26.249 15.341 26.0954 15.6145 25.8219C15.888 25.5484 16.0417 25.1775 16.0417 24.7907V16.0407C16.0417 15.654 15.888 15.283 15.6145 15.0095C15.341 14.736 14.9701 14.5824 14.5833 14.5824C14.1966 14.5824 13.8256 14.736 13.5521 15.0095C13.2786 15.283 13.125 15.654 13.125 16.0407V24.7907C13.125 25.1775 13.2786 25.5484 13.5521 25.8219C13.8256 26.0954 14.1966 26.249 14.5833 26.249Z" fill="#060606"/>
<path d="M20.4163 26.249C20.8031 26.249 21.1741 26.0954 21.4476 25.8219C21.721 25.5484 21.8747 25.1775 21.8747 24.7907V16.0407C21.8747 15.654 21.721 15.283 21.4476 15.0095C21.1741 14.736 20.8031 14.5824 20.4163 14.5824C20.0296 14.5824 19.6586 14.736 19.3851 15.0095C19.1117 15.283 18.958 15.654 18.958 16.0407V24.7907C18.958 25.1775 19.1117 25.5484 19.3851 25.8219C19.6586 26.0954 20.0296 26.249 20.4163 26.249Z" fill="#060606"/>
</g>
<defs>
<clipPath id="clip0_20_208">
<rect width="35" height="35" fill="white"/>
</clipPath>
</defs>
</svg>
