<svg width="35" height="35" viewBox="0 0 35 35" fill="none" xmlns="http://www.w3.org/2000/svg">
<g clip-path="url(#clip0_445_3792)">
<path d="M35.0166 16.6159C35.0166 14.4174 29.0343 12.5831 21.0846 12.1599L21.084 8.65695H31.0101V1.3667H3.86787V8.65695H13.7933V12.1771C5.9883 12.6293 0.149902 14.4444 0.149902 16.6159C0.149902 18.7878 5.9883 20.6031 13.7933 21.0545V33.6336H21.084V21.0716C29.0343 20.6494 35.0166 18.8145 35.0166 16.6159ZM17.5832 18.7817C9.05019 18.7817 2.13267 17.4611 2.13267 15.831C2.13267 14.4507 7.09289 13.292 13.7933 12.9696V13.8004L13.794 17.2049C15.002 17.2726 16.2716 17.3081 17.5832 17.3081C18.7908 17.3081 19.9636 17.2774 21.0847 17.2212V12.9569C27.9303 13.2596 33.0339 14.4305 33.0339 15.831C33.0338 17.4611 26.1161 18.7817 17.5832 18.7817Z" fill="#060606"/>
</g>
<defs>
<clipPath id="clip0_445_3792">
<rect width="35" height="35" fill="white"/>
</clipPath>
</defs>
</svg>
