<svg width="35" height="35" viewBox="0 0 35 35" fill="none" xmlns="http://www.w3.org/2000/svg">
<path d="M28.0024 22.9497C28.0024 25.1674 27.2006 26.9526 25.5966 28.3054C23.9926 29.6443 22.405 30.4461 19.518 30.7112V35H15.3365V30.7951C11.9334 30.7254 9.60649 30.1255 7.04014 28.996V23.473C8.25343 24.0725 9.71108 24.6027 11.4124 25.0628C13.1279 25.523 13.9972 25.7949 15.3361 25.8788V19.3934L14.5922 18.8494C11.8308 17.7614 9.87125 16.583 8.71355 15.3138C7.56999 14.0308 6.99805 12.4478 6.99805 10.5649C6.99805 8.54256 7.78607 6.88298 9.36212 5.58582C10.952 4.27486 12.505 3.47992 15.3361 3.20102V0.000244141H19.5177V3.11749C22.7115 3.25694 24.9408 3.8986 27.5209 5.04216L25.5545 9.9374C23.3789 9.04478 21.8051 8.50079 19.5177 8.30576V14.4774C22.2373 15.5233 23.5111 16.4301 24.655 17.197C25.8127 17.964 26.6563 18.8079 27.1864 19.7285C27.7301 20.6488 28.0024 21.7226 28.0024 22.9497ZM21.7051 23.2638C21.7051 22.678 21.468 22.183 20.9937 21.7785C20.5195 21.374 20.4659 20.9556 19.5177 20.5231V25.7324C21.4144 25.4115 21.7051 24.5886 21.7051 23.2638ZM13.2954 10.5649C13.2954 11.1786 13.5045 11.6878 13.9229 12.092C14.3554 12.4824 14.3879 12.8869 15.3361 13.3053V8.3893C13.5368 8.65439 13.2954 9.37959 13.2954 10.5649Z" fill="#060606"/>
</svg>
