<svg width="63" height="64" viewBox="0 0 63 64" fill="none" xmlns="http://www.w3.org/2000/svg">
<g clip-path="url(#clip0_14_64)">
<path d="M44.6255 21.3357H18.3755V18.669C18.3747 15.7127 19.341 12.84 21.1226 10.5025C22.9042 8.16503 25.3999 6.49528 28.2175 5.75582C31.035 5.01636 34.0146 5.24912 36.6878 6.41749C39.3609 7.58587 41.576 9.62361 42.9849 12.2103C43.1522 12.5166 43.3773 12.7863 43.6473 13.0042C43.9173 13.2221 44.2269 13.3838 44.5584 13.4801C44.8899 13.5764 45.2368 13.6055 45.5794 13.5656C45.9219 13.5257 46.2534 13.4177 46.5549 13.2477C46.8563 13.0777 47.1219 12.849 47.3363 12.5747C47.5508 12.3004 47.71 11.9859 47.8048 11.6492C47.8996 11.3124 47.9282 10.96 47.889 10.612C47.8497 10.264 47.7434 9.92724 47.576 9.621C45.6028 6.00051 42.5011 3.14879 38.7587 1.5141C35.0163 -0.120579 30.8452 -0.445533 26.9011 0.590322C22.9571 1.62618 19.4637 3.9641 16.9701 7.2366C14.4765 10.5091 13.1241 14.5306 13.1255 18.669V22.4663C10.7876 23.5029 8.79763 25.2091 7.39905 27.3762C6.00046 29.5434 5.25384 32.0776 5.25049 34.669V50.669C5.25466 54.2039 6.6388 57.5929 9.09932 60.0924C11.5598 62.592 14.8958 63.9981 18.3755 64.0023H44.6255C48.1052 63.9981 51.4412 62.592 53.9017 60.0924C56.3622 57.5929 57.7463 54.2039 57.7505 50.669V34.669C57.7463 31.1341 56.3622 27.7452 53.9017 25.2456C51.4412 22.746 48.1052 21.3399 44.6255 21.3357ZM52.5005 50.669C52.5005 52.7907 51.6708 54.8256 50.194 56.3259C48.7171 57.8262 46.7141 58.669 44.6255 58.669H18.3755C16.2869 58.669 14.2839 57.8262 12.807 56.3259C11.3302 54.8256 10.5005 52.7907 10.5005 50.669V34.669C10.5005 32.5473 11.3302 30.5124 12.807 29.0121C14.2839 27.5119 16.2869 26.669 18.3755 26.669H44.6255C46.7141 26.669 48.7171 27.5119 50.194 29.0121C51.6708 30.5124 52.5005 32.5473 52.5005 34.669V50.669Z" fill="white"/>
<path d="M31.5005 37.335C30.8043 37.335 30.1366 37.6159 29.6443 38.116C29.1521 38.6161 28.8755 39.2944 28.8755 40.0016V45.3349C28.8755 46.0422 29.1521 46.7205 29.6443 47.2206C30.1366 47.7207 30.8043 48.0016 31.5005 48.0016C32.1967 48.0016 32.8644 47.7207 33.3567 47.2206C33.849 46.7205 34.1255 46.0422 34.1255 45.3349V40.0016C34.1255 39.2944 33.849 38.6161 33.3567 38.116C32.8644 37.6159 32.1967 37.335 31.5005 37.335Z" fill="white"/>
</g>
<defs>
<clipPath id="clip0_14_64">
<rect width="63" height="64" fill="white"/>
</clipPath>
</defs>
</svg>
