<svg width="50" height="51" viewBox="0 0 50 51" fill="none" xmlns="http://www.w3.org/2000/svg">
<g clip-path="url(#clip0_20_216)">
<path d="M25.1961 2.32971C24.4522 2.32522 23.7197 2.51267 23.0694 2.87395C22.4191 3.23523 21.873 3.75812 21.4838 4.3921L8.45977 24.3664C7.63991 25.4469 7.13799 26.7348 7.01054 28.0851C6.88309 29.4354 7.13516 30.7945 7.73838 32.0093C8.3416 33.2241 9.272 34.2464 10.4248 34.961C11.5776 35.6756 12.907 36.0541 14.2633 36.054L17.8055 36.053C17.9972 36.0529 18.1871 36.0907 18.3642 36.1641C18.5414 36.2376 18.7023 36.3452 18.8377 36.4809L22.1046 39.7477C22.5662 40.2048 23.1248 40.552 23.739 40.7635L23.738 40.7789L23.7916 40.7789C24.7013 41.0843 25.6861 41.0821 26.5944 40.7727L26.648 40.7727L26.647 40.7573C27.2612 40.5458 27.8198 40.1986 28.2814 39.7415L31.5483 36.4747C31.8214 36.2012 32.1919 36.0473 32.5784 36.0468L36.1196 36.0468C37.0746 36.052 38.0213 35.8682 38.9049 35.5059C39.7886 35.1436 40.5918 34.6101 41.2683 33.9359C41.8304 33.3724 42.2974 32.7215 42.6512 32.0086C43.2561 30.8122 43.5147 29.4705 43.3977 28.1349C43.2807 26.7993 42.7929 25.523 41.9891 24.4499L28.9342 4.43438C28.547 3.78967 27.9988 3.25668 27.3435 2.88771C26.6881 2.51873 25.9482 2.32645 25.1961 2.32971ZM17.8096 33.1367L14.2664 33.1388C13.4508 33.1487 12.6493 32.9258 11.956 32.4962C11.2626 32.0666 10.7062 31.4482 10.352 30.7134C9.97792 29.9704 9.8251 29.1355 9.91175 28.3081C9.99841 27.4807 10.3209 26.6956 10.8408 26.0462L23.737 6.27198L23.739 37.2615L20.8981 34.4206C20.4937 34.0131 20.0125 33.6898 19.4824 33.4694C18.9523 33.249 18.3837 33.136 17.8096 33.1367ZM39.6102 26.1236C40.1006 26.7723 40.4004 27.5449 40.4761 28.3546C40.5518 29.1643 40.4003 29.9791 40.0386 30.7075C39.6769 31.4358 39.1194 32.049 38.4286 32.4781C37.7378 32.9072 36.9411 33.1353 36.1278 33.1367H32.5805C32.0063 33.1352 31.4376 33.2474 30.9071 33.4671C30.3766 33.6868 29.895 34.0094 29.49 34.4164L26.6491 37.2574L26.6542 6.27094L39.6102 26.1236Z" fill="#060606"/>
</g>
<defs>
<clipPath id="clip0_20_216">
<rect width="35" height="35" fill="white" transform="translate(0.446289 25.2604) rotate(-45)"/>
</clipPath>
</defs>
</svg>
