<svg width="47" height="53" viewBox="0 0 47 53" fill="none" xmlns="http://www.w3.org/2000/svg">
<path fill-rule="evenodd" clip-rule="evenodd" d="M23.8761 0.20892C23.3779 -0.0725843 22.7674 -0.0696088 22.2716 0.217846L16.3117 3.67333C15.54 4.12071 15.2772 5.10891 15.7246 5.88054C16.172 6.65217 17.1602 6.91503 17.9318 6.46765L21.3856 4.46515V8.88131C21.3856 9.86244 22.181 10.6578 23.1622 10.6578C24.1433 10.6578 24.9387 9.86244 24.9387 8.88131V4.5585L28.2315 6.46765C29.0031 6.91503 29.9914 6.65218 30.4387 5.88054C30.8861 5.10891 30.6233 4.12071 29.8516 3.67333L24.2163 0.406031C24.1112 0.328412 23.9972 0.262111 23.8761 0.20892ZM8.39592 11.9964C9.16755 11.549 9.4304 10.5608 8.98302 9.7892C8.53564 9.01757 7.54744 8.75471 6.77581 9.20209L0.815886 12.6576C0.344327 12.931 0.0443395 13.4225 0.0135554 13.9626C-0.00373362 14.1014 -0.0043488 14.2409 0.0109332 14.3782V20.9657C0.0109332 21.8576 0.733997 22.5807 1.62594 22.5807C2.51789 22.5807 3.24095 21.8576 3.24095 20.9657V17.0796L6.98985 19.2441C7.83954 19.7346 8.92603 19.4435 9.4166 18.5938C9.90717 17.7441 9.61605 16.6576 8.76636 16.1671L4.97647 13.979L8.39592 11.9964ZM39.3875 9.20209C38.6159 8.75471 37.6277 9.01757 37.1803 9.7892C36.7329 10.5608 36.9958 11.549 37.7674 11.9964L41.2672 14.0255L37.558 16.1671C36.7083 16.6576 36.4171 17.7441 36.9077 18.5938C37.3983 19.4435 38.4848 19.7346 39.3345 19.2441L42.9224 17.1726V20.9657C42.9224 21.8576 43.6454 22.5807 44.5374 22.5807C45.4293 22.5807 46.1524 21.8576 46.1524 20.9657V14.9452C46.3938 14.4357 46.3893 13.82 46.086 13.2947C45.8448 12.8769 45.4594 12.5941 45.029 12.4729L39.3875 9.20209ZM3.24095 32.0232C3.24095 31.1313 2.51789 30.4082 1.62594 30.4082C0.733997 30.4082 0.0109332 31.1313 0.0109332 32.0232V38.6815C-0.0295295 39.0449 0.0414552 39.424 0.238304 39.7649C0.463858 40.1556 0.815391 40.4282 1.21196 40.561L6.77581 43.7868C7.54744 44.2342 8.53564 43.9714 8.98302 43.1997C9.4304 42.4281 9.16755 41.4399 8.39592 40.9925L5.03757 39.0454L8.76636 36.8926C9.61605 36.402 9.90717 35.3155 9.4166 34.4658C8.92603 33.6161 7.83954 33.325 6.98985 33.8156L3.24095 35.98V32.0232ZM46.1524 32.0232C46.1524 31.1313 45.4293 30.4082 44.5374 30.4082C43.6454 30.4082 42.9224 31.1313 42.9224 32.0232V35.887L39.3345 33.8156C38.4848 33.325 37.3983 33.6161 36.9077 34.4658C36.4171 35.3155 36.7083 36.402 37.558 36.8926L41.2061 38.9988L37.7674 40.9925C36.9958 41.4399 36.7329 42.4281 37.1803 43.1997C37.6277 43.9714 38.6159 44.2342 39.3875 43.7868L44.8318 40.6303C45.3401 40.5476 45.8084 40.2457 46.086 39.7649C46.3893 39.2397 46.3938 38.6239 46.1524 38.1144V32.0232ZM17.9318 46.5213C17.1602 46.0739 16.1719 46.3368 15.7246 47.1084C15.2772 47.88 15.54 48.8682 16.3117 49.3156L22.2716 52.7711C22.4488 52.8738 22.6407 52.9402 22.8369 52.9703C22.9424 52.9898 23.0511 53 23.1622 53C23.6688 53 24.1259 52.7879 24.4496 52.4476L29.8516 49.3156C30.6233 48.8682 30.8861 47.88 30.4387 47.1084C29.9914 46.3368 29.0031 46.0739 28.2315 46.5213L24.9387 48.4304V44.1783C24.9387 43.1972 24.1433 42.4018 23.1622 42.4018C22.181 42.4018 21.3856 43.1972 21.3856 44.1783V48.5238L17.9318 46.5213Z" fill="#F2F2F2"/>
<path fill-rule="evenodd" clip-rule="evenodd" d="M30.898 22.2364C31.3827 23.0894 31.0841 24.1739 30.2311 24.6586L24.8676 27.706V34.0731C24.8676 35.0543 24.0722 35.8496 23.0911 35.8496C22.1099 35.8496 21.3146 35.0543 21.3146 34.0731V27.7002L16.0146 24.6542C15.164 24.1653 14.8707 23.0794 15.3596 22.2288C15.8485 21.3781 16.9344 21.0848 17.7851 21.5737L23.0961 24.626L28.4758 21.5694C29.3289 21.0847 30.4133 21.3833 30.898 22.2364Z" fill="white"/>
</svg>
