<svg width="42" height="42" viewBox="0 0 42 42" fill="none" xmlns="http://www.w3.org/2000/svg">
<g clip-path="url(#clip0_106_260)">
<path d="M41.7599 19.8753C41.7599 17.2876 34.7188 15.1286 25.3618 14.6305L25.3611 10.5075H37.0443V1.92676H5.09753V10.5075H16.7798V14.6507C7.59331 15.1829 0.721436 17.3194 0.721436 19.8753C0.721436 22.4316 7.59331 24.5682 16.7798 25.0996V39.9053H25.3611V25.1197C34.7188 24.6227 41.7599 22.463 41.7599 19.8753ZM21.2406 22.4245C11.1972 22.4245 3.05517 20.8701 3.05517 18.9514C3.05517 17.3268 8.89342 15.963 16.7798 15.5835V16.5613H16.7808V20.5685C18.2026 20.6483 19.6969 20.69 21.2406 20.69C22.6621 20.69 24.0425 20.6539 25.362 20.5878V15.5686C33.4194 15.9248 39.4264 17.303 39.4264 18.9514C39.4262 20.8701 31.284 22.4245 21.2406 22.4245Z" fill="white"/>
</g>
<defs>
<clipPath id="clip0_106_260">
<rect width="41.1955" height="41.1955" fill="white" transform="translate(0.54541 0.318237)"/>
</clipPath>
</defs>
</svg>
