<svg width="35" height="35" viewBox="0 0 35 35" fill="none" xmlns="http://www.w3.org/2000/svg">
<g clip-path="url(#clip0_10_127)">
<path d="M34.7605 12.825C34.4622 11.8755 33.8662 11.0472 33.0607 10.4626C32.2553 9.87798 31.283 9.5681 30.2878 9.5788H23.9163L21.9811 3.54713C21.6768 2.59769 21.0788 1.76944 20.2734 1.18181C19.4679 0.594174 18.4967 0.277527 17.4997 0.277527C16.5027 0.277527 15.5314 0.594174 14.726 1.18181C13.9205 1.76944 13.3225 2.59769 13.0182 3.54713L11.083 9.5788H4.71155C3.71951 9.58021 2.75328 9.89508 1.95089 10.4784C1.1485 11.0618 0.55098 11.8838 0.243681 12.8271C-0.0636177 13.7703 -0.0649778 14.7865 0.239795 15.7306C0.544568 16.6747 1.13988 17.4983 1.94071 18.0838L7.12655 21.8755L5.15488 27.9815C4.83625 28.9285 4.83221 29.9532 5.14337 30.9027C5.45453 31.8522 6.06422 32.6757 6.88155 33.2505C7.68487 33.8437 8.65837 34.1615 9.65698 34.1565C10.6556 34.1515 11.6259 33.824 12.4232 33.2228L17.4997 29.4865L22.5776 33.2184C23.3795 33.8082 24.3477 34.1286 25.3431 34.1334C26.3386 34.1383 27.3099 33.8274 28.1175 33.2454C28.925 32.6634 29.5273 31.8403 29.8376 30.8945C30.1479 29.9487 30.1503 28.9288 29.8445 27.9815L27.8728 21.8755L33.0645 18.0838C33.8744 17.5056 34.4767 16.682 34.7822 15.7349C35.0877 14.7878 35.0801 13.7675 34.7605 12.825ZM31.3436 15.7286L25.3003 20.1459C25.0521 20.327 24.8674 20.5818 24.7726 20.8741C24.6778 21.1663 24.6777 21.4811 24.7724 21.7734L27.0693 28.8755C27.1855 29.2357 27.1845 29.6235 27.0664 29.9831C26.9484 30.3427 26.7193 30.6556 26.4122 30.8768C26.1051 31.0981 25.7357 31.2162 25.3572 31.2143C24.9787 31.2123 24.6106 31.0904 24.3057 30.8661L18.363 26.4911C18.1127 26.3072 17.8102 26.2081 17.4997 26.2081C17.1891 26.2081 16.8866 26.3072 16.6363 26.4911L10.6936 30.8661C10.389 31.0935 10.0198 31.2179 9.63964 31.2213C9.25949 31.2248 8.88813 31.1071 8.57938 30.8853C8.27063 30.6635 8.04055 30.3491 7.9225 29.9877C7.80444 29.6263 7.80455 29.2368 7.9228 28.8755L10.227 21.7734C10.3216 21.4811 10.3216 21.1663 10.2268 20.8741C10.132 20.5818 9.94727 20.327 9.69905 20.1459L3.65571 15.7286C3.35136 15.5057 3.12522 15.1924 3.00959 14.8334C2.89395 14.4743 2.89474 14.0879 3.01184 13.7294C3.12893 13.3708 3.35635 13.0584 3.66161 12.8368C3.96686 12.6152 4.33434 12.4957 4.71155 12.4955H12.149C12.4578 12.4955 12.7586 12.3975 13.0081 12.2156C13.2576 12.0337 13.4429 11.7773 13.5374 11.4834L15.7978 4.43817C15.9138 4.07765 16.1413 3.76324 16.4473 3.5402C16.7534 3.31716 17.1224 3.19699 17.5011 3.19699C17.8799 3.19699 18.2488 3.31716 18.5549 3.5402C18.861 3.76324 19.0884 4.07765 19.2045 4.43817L21.4649 11.4834C21.5594 11.7773 21.7447 12.0337 21.9942 12.2156C22.2437 12.3975 22.5445 12.4955 22.8532 12.4955H30.2907C30.6679 12.4957 31.0354 12.6152 31.3407 12.8368C31.6459 13.0584 31.8733 13.3708 31.9904 13.7294C32.1075 14.0879 32.1083 14.4743 31.9927 14.8334C31.877 15.1924 31.6509 15.5057 31.3465 15.7286H31.3436Z" fill="#060606"/>
</g>
<defs>
<clipPath id="clip0_10_127">
<rect width="35" height="35" fill="white"/>
</clipPath>
</defs>
</svg>
