<svg width="35" height="35" viewBox="0 0 35 35" fill="none" xmlns="http://www.w3.org/2000/svg">
<g clip-path="url(#clip0_57_435)">
<path d="M27.7083 4.37547H18.1883C17.9628 4.37696 17.7399 4.32709 17.5365 4.22964L12.934 1.91963C12.3264 1.6171 11.657 1.45936 10.9783 1.4588H7.29167C5.35851 1.46112 3.50519 2.23009 2.13824 3.59704C0.771286 4.96399 0.00231563 6.81731 0 8.75047L0 26.2505C0.00231563 28.1836 0.771286 30.037 2.13824 31.4039C3.50519 32.7709 5.35851 33.5398 7.29167 33.5421H27.7083C29.6415 33.5398 31.4948 32.7709 32.8618 31.4039C34.2287 30.037 34.9977 28.1836 35 26.2505V11.6671C34.9977 9.73398 34.2287 7.88066 32.8618 6.51371C31.4948 5.14675 29.6415 4.37778 27.7083 4.37547ZM7.29167 4.37547H10.9783C11.2039 4.37398 11.4268 4.42385 11.6302 4.5213L16.2327 6.82401C16.8397 7.12907 17.509 7.28931 18.1883 7.29214H27.7083C28.5805 7.29356 29.4323 7.55561 30.1544 8.04465C30.8765 8.53369 31.436 9.2274 31.761 10.0367L2.91667 10.2001V8.75047C2.91667 7.59015 3.3776 6.47735 4.19807 5.65688C5.01855 4.8364 6.13134 4.37547 7.29167 4.37547ZM27.7083 30.6255H7.29167C6.13134 30.6255 5.01855 30.1645 4.19807 29.3441C3.3776 28.5236 2.91667 27.4108 2.91667 26.2505V13.1167L32.0833 12.9519V26.2505C32.0833 27.4108 31.6224 28.5236 30.8019 29.3441C29.9815 30.1645 28.8687 30.6255 27.7083 30.6255Z" fill="#060606"/>
</g>
<defs>
<clipPath id="clip0_57_435">
<rect width="35" height="35" fill="white"/>
</clipPath>
</defs>
</svg>
