<svg width="40" height="40" viewBox="0 0 40 40" fill="none" xmlns="http://www.w3.org/2000/svg">
<circle cx="20" cy="20" r="20" fill="#060606"/>
<g clip-path="url(#clip0_601_584)">
<path d="M19.6427 5.29609C19.1124 5.29289 18.5902 5.42651 18.1267 5.68405C17.6631 5.94159 17.2738 6.31433 16.9964 6.76627L7.71217 21.005C7.12774 21.7752 6.76994 22.6933 6.67909 23.6558C6.58824 24.6184 6.76793 25.5872 7.19793 26.4532C7.62794 27.3192 8.29117 28.0479 9.11295 28.5573C9.93473 29.0667 10.8824 29.3365 11.8493 29.3365L14.3743 29.3357C14.511 29.3357 14.6463 29.3626 14.7726 29.415C14.8988 29.4673 15.0135 29.5441 15.1101 29.6408L17.4389 31.9695C17.7679 32.2954 18.1662 32.5428 18.604 32.6936L18.6033 32.7046L18.6415 32.7046C19.2899 32.9223 19.992 32.9208 20.6395 32.7002L20.6777 32.7002L20.6769 32.6892C21.1148 32.5384 21.513 32.2909 21.8421 31.9651L24.1708 29.6364C24.3655 29.4414 24.6296 29.3317 24.9052 29.3313L27.4295 29.3313C28.1103 29.3351 28.7851 29.204 29.415 28.9458C30.045 28.6875 30.6175 28.3071 31.0998 27.8266C31.5005 27.4249 31.8334 26.9609 32.0855 26.4527C32.5168 25.5998 32.7011 24.6434 32.6177 23.6913C32.5343 22.7393 32.1865 21.8294 31.6136 21.0645L22.3074 6.7964C22.0313 6.33682 21.6406 5.95688 21.1734 5.69386C20.7063 5.43083 20.1788 5.29376 19.6427 5.29609V5.29609ZM14.3772 27.2569L11.8515 27.2584C11.2701 27.2654 10.6987 27.1065 10.2045 26.8003C9.7102 26.4941 9.31355 26.0532 9.06106 25.5294C8.79439 24.9997 8.68545 24.4046 8.74722 23.8148C8.80899 23.225 9.03886 22.6654 9.4095 22.2024L18.6025 8.10633L18.604 30.1972L16.5788 28.1721C16.2906 27.8816 15.9476 27.6511 15.5697 27.494C15.1918 27.337 14.7865 27.2563 14.3772 27.2569V27.2569ZM29.9178 22.2575C30.2673 22.72 30.4811 23.2707 30.535 23.8479C30.589 24.4251 30.481 25.006 30.2232 25.5252C29.9654 26.0444 29.5679 26.4815 29.0755 26.7874C28.583 27.0933 28.0151 27.2559 27.4354 27.2569L24.9067 27.2569C24.4974 27.2558 24.0919 27.3358 23.7138 27.4924C23.3356 27.649 22.9923 27.879 22.7036 28.1691L20.6784 30.1943L20.6821 8.1056L29.9178 22.2575Z" fill="white"/>
</g>
<defs>
<clipPath id="clip0_601_584">
<rect width="24.9498" height="24.9498" fill="white" transform="translate(2 21.6422) rotate(-45)"/>
</clipPath>
</defs>
</svg>
