<svg width="24" height="13" viewBox="0 0 24 13" fill="none" xmlns="http://www.w3.org/2000/svg">
<path d="M12.0002 12.17C11.3431 12.1712 10.6923 12.0428 10.0849 11.7923C9.47746 11.5418 8.92538 11.174 8.46019 10.71L0.290185 2.53999C0.101882 2.35169 -0.00390625 2.09629 -0.00390625 1.82999C-0.00390625 1.56369 0.101882 1.30829 0.290185 1.11999C0.478489 0.931685 0.733884 0.825897 1.00019 0.825897C1.26649 0.825897 1.52188 0.931685 1.71019 1.11999L9.88019 9.28999C10.4427 9.85179 11.2052 10.1673 12.0002 10.1673C12.7952 10.1673 13.5577 9.85179 14.1202 9.28999L22.2902 1.11999C22.4785 0.931685 22.7339 0.825897 23.0002 0.825897C23.2665 0.825897 23.5219 0.931685 23.7102 1.11999C23.8985 1.30829 24.0043 1.56369 24.0043 1.82999C24.0043 2.09629 23.8985 2.35169 23.7102 2.53999L15.5402 10.71C15.075 11.174 14.5229 11.5418 13.9155 11.7923C13.3081 12.0428 12.6572 12.1712 12.0002 12.17Z" fill="#ADADAD"/>
</svg>
